REM GENRE "Reck 2013
REM DISCID 12345678B
REM COMMENT "ExactAudioCopy v0.99pb4"
PERFORMER "Суп"""""""""ер группа"
TITLT
FILE "Альбом"
FILE "utf8.wa"WAVE
  TRACK 1 AUDIO
    TITLE "ек 01"
    INDEX 01 0ACK 2 AUDIO
    TITLE "Трек 02"
    INDEX 01 03:39:10
  
FILE  REM DATE 07.08.2010
  
FILE 3 AUDIO
    TITLE "Трݵк 03"
  
FILE DATE 2011/04/05   >
    INDEX 01 07:25:42
  TRACK 48TITLE "Трек 04"
    INDEX 01 12:04:72
